HIERARCHY
ROOT joint_Root
{
	OFFSET 0.0 0.0 0.0
	CHANNELS 6 Xposition Yposition Zposition Zrotation Xrotation Yrotation 
	JOINT Hips
	{
		OFFSET 4.5925 91.4895 -427.239
		CHANNELS 6 Xposition Yposition Zposition Zrotation Xrotation Yrotation 
		JOINT Spine
		{
			OFFSET 15.7357 0.0 0.0
			CHANNELS 6 Xposition Yposition Zposition Zrotation Xrotation Yrotation 
			JOINT Chest
			{
				OFFSET 8.98455 -0.406207 0.0
				CHANNELS 6 Xposition Yposition Zposition Zrotation Xrotation Yrotation 
				JOINT Neck
				{
					OFFSET 16.3773 0.0 0.0
					CHANNELS 6 Xposition Yposition Zposition Zrotation Xrotation Yrotation 
					JOINT Head
					{
						OFFSET 6.45672 0.0 0.0
						CHANNELS 6 Xposition Yposition Zposition Zrotation Xrotation Yrotation 
						End Site
						{
							OFFSET 0.0 0.0 0.0
						}
					}
				}
				JOINT Shoulder_L
				{
					OFFSET 12.9942 -0.242716 4.98039
					CHANNELS 6 Xposition Yposition Zposition Zrotation Xrotation Yrotation 
					JOINT UpperArm_L
					{
						OFFSET 5.34809 0.0 0.0
						CHANNELS 6 Xposition Yposition Zposition Zrotation Xrotation Yrotation 
						JOINT LowerArm_L
						{
							OFFSET 24.3286 1.87007e-05 0.0
							CHANNELS 6 Xposition Yposition Zposition Zrotation Xrotation Yrotation 
							JOINT Hand_L
							{
								OFFSET 22.2916 0.0 0.0
								CHANNELS 6 Xposition Yposition Zposition Zrotation Xrotation Yrotation 
								End Site
								{
									OFFSET 0.0 0.0 0.0
								}
							}
						}
					}
				}
				JOINT Shoulder_R
				{
					OFFSET 12.9945 -0.242716 -4.98039
					CHANNELS 6 Xposition Yposition Zposition Zrotation Xrotation Yrotation 
					JOINT UpperArm_R
					{
						OFFSET -5.34813 0.0 0.0
						CHANNELS 6 Xposition Yposition Zposition Zrotation Xrotation Yrotation 
						JOINT LowerArm_R
						{
							OFFSET -24.3289 0.000322201 0.0
							CHANNELS 6 Xposition Yposition Zposition Zrotation Xrotation Yrotation 
							JOINT Hand_R
							{
								OFFSET -22.2915 -0.000108084 0.0
								CHANNELS 6 Xposition Yposition Zposition Zrotation Xrotation Yrotation 
								End Site
								{
									OFFSET 0.0 0.0 0.0
								}
							}
						}
					}
				}
			}
		}
		JOINT UpperLeg_L
		{
			OFFSET -2.19248 -6.46944 0.0
			CHANNELS 6 Xposition Yposition Zposition Zrotation Xrotation Yrotation 
			JOINT LowerLeg_L
			{
				OFFSET 39.0811 0.0 -1.23785e-05
				CHANNELS 6 Xposition Yposition Zposition Zrotation Xrotation Yrotation 
				JOINT Foot_L
				{
					OFFSET 40.9854 0.0 -1.26872e-05
					CHANNELS 6 Xposition Yposition Zposition Zrotation Xrotation Yrotation 
					JOINT Toes_L
					{
						OFFSET 11.7543 0.0 0.0
						CHANNELS 6 Xposition Yposition Zposition Zrotation Xrotation Yrotation 
						End Site
						{
							OFFSET 0.0 0.0 0.0
						}
					}
				}
			}
		}
		JOINT UpperLeg_R
		{
			OFFSET -2.19251 6.46944 0.0
			CHANNELS 6 Xposition Yposition Zposition Zrotation Xrotation Yrotation 
			JOINT LowerLeg_R
			{
				OFFSET -39.0811 -0.00228153 -0.0401928
				CHANNELS 6 Xposition Yposition Zposition Zrotation Xrotation Yrotation 
				JOINT Foot_R
				{
					OFFSET -40.9854 0.0 0.0
					CHANNELS 6 Xposition Yposition Zposition Zrotation Xrotation Yrotation 
					JOINT Toes_R
					{
						OFFSET -11.7543 0.0 0.0
						CHANNELS 6 Xposition Yposition Zposition Zrotation Xrotation Yrotation 
						End Site
						{
							OFFSET 0.0 0.0 0.0
						}
					}
				}
			}
		}
	}
}
MOTION
Frames:	4
Frame Time:	0.0333333
0.000000 0.000000 0.000000 0.000000 0.000000 -0.000000 -2.465490 81.877500 -3.843090 89.394000 -4.289250 6.948490 15.735700 0.000005 -0.000001 88.806000 80.776400 -87.990300 8.984550 -0.406207 -0.000000 10.680400 -0.360964 1.664310 16.377300 -0.000001 -0.000001 -1.073850 -3.078790 0.954824 6.456720 -0.000001 -0.000000 -2.843030 -3.624380 5.002630 12.994200 -0.242716 4.980390 -91.035300 3.693390 -74.329600 5.348090 -0.000007 -0.000001 -64.929100 15.209400 -19.648700 24.328600 0.000019 0.000005 7.316730 18.682000 -21.843500 22.291600 -0.000001 0.000005 8.902990 5.252770 1.360270 12.994500 -0.242716 -4.980390 88.582900 9.013810 -81.027100 -5.348130 -0.000001 -0.000004 -61.298500 26.173400 -12.845200 -24.328900 0.000322 -0.000009 -2.457880 -4.281490 -29.885900 -22.291500 -0.000108 -0.000004 21.884500 5.504110 -6.702410 -2.192480 -6.469440 -0.000000 -172.960000 -13.171200 -21.314700 39.081100 -0.000007 -0.000012 -0.647426 0.326878 63.212700 40.985400 -0.000006 -0.000013 -0.145101 5.866780 -84.252500 11.754300 -0.000000 0.000003 -0.000443 -0.003601 -16.709800 -2.192510 6.469440 -0.000001 178.945000 13.617600 158.298000 -39.081100 -0.002282 -0.040193 0.086635 -0.041111 63.775800 -40.985400 0.000008 0.000006 8.773620 4.652660 -85.430200 -11.754300 -0.000006 -0.000006 -1.259010 -1.597460 -16.224300
0.000000 0.000000 0.000000 0.000000 0.000000 -0.000000 -2.248570 83.272100 -2.850370 89.910200 -4.398830 7.381050 15.735700 0.000005 -0.000001 89.986300 81.233700 -88.255100 8.984550 -0.406207 -0.000000 9.768530 0.026082 3.457710 16.377300 -0.000001 -0.000001 0.529336 -3.244290 0.986980 6.456720 -0.000001 -0.000000 -2.050580 -3.841170 3.286900 12.994200 -0.242716 4.980390 -90.751600 2.508350 -73.313000 5.348090 -0.000007 -0.000001 -60.867400 6.293010 -23.290100 24.328600 0.000019 0.000005 6.141130 18.676000 -18.572600 22.291600 -0.000001 0.000005 8.364520 5.223480 2.122780 12.994500 -0.242716 -4.980390 88.425000 8.967210 -79.995500 -5.348130 -0.000001 -0.000004 -62.423800 22.013600 -10.364200 -24.328900 0.000322 -0.000009 -3.301140 -6.484720 -27.048000 -22.291500 -0.000108 -0.000004 24.306300 5.468020 -5.296410 -2.192480 -6.469440 -0.000000 -173.667000 -12.575200 -17.977000 39.081100 -0.000007 -0.000012 -0.630848 0.379389 58.979000 40.985400 -0.000006 -0.000013 -0.513472 5.146100 -83.007300 11.754300 -0.000000 0.000003 -0.000453 -0.003665 -16.712100 -2.192510 6.469440 -0.000001 177.827000 13.777000 161.450000 -39.081100 -0.002282 -0.040193 0.075756 -0.042038 59.912100 -40.985400 0.000008 0.000006 8.544910 5.408120 -84.227600 -11.754300 -0.000006 -0.000006 -1.240620 -1.570010 -16.306700
0.000000 0.000000 0.000000 0.000000 0.000000 -0.000000 -1.946480 85.409000 -1.692760 90.871100 -4.188620 8.182190 15.735700 0.000005 -0.000001 91.520500 81.785900 -88.939500 8.984550 -0.406207 -0.000000 8.651520 0.453827 5.123100 16.377300 -0.000001 -0.000001 2.596280 -3.394750 0.912707 6.456720 -0.000001 -0.000000 -1.222420 -4.202700 1.661830 12.994200 -0.242716 4.980390 -90.218000 0.687991 -72.416800 5.348090 -0.000007 -0.000001 -53.633000 -2.901190 -29.160600 24.328600 0.000019 0.000005 4.742380 17.368700 -15.530600 22.291600 -0.000001 0.000005 10.517100 5.187800 3.023400 12.994500 -0.242716 -4.980390 88.244600 8.902480 -78.798100 -5.348130 -0.000001 -0.000004 -62.069700 18.847100 -7.142280 -24.328900 0.000322 -0.000009 -5.166980 -11.350100 -24.673100 -22.291500 -0.000108 -0.000004 24.038700 5.491120 -6.180240 -2.192480 -6.469440 -0.000000 -174.834000 -12.153700 -12.795400 39.081100 -0.000007 -0.000012 -0.527621 0.414396 51.855000 40.985400 -0.000006 -0.000013 -0.698632 4.738370 -80.396300 11.754300 -0.000000 0.000003 -0.000317 -0.002724 -16.678800 -2.192510 6.469440 -0.000001 176.084000 13.774800 166.335000 -39.081100 -0.002282 -0.040193 0.059839 -0.041833 53.534500 -40.985400 0.000008 0.000006 7.818290 6.154450 -81.858600 -11.754300 -0.000006 -0.000006 -1.147750 -1.443770 -16.423400
0.000000 0.000000 0.000000 0.000000 0.000000 -0.000000 -1.706090 87.526400 -0.598231 91.339400 -3.584340 8.390230 15.735700 0.000005 -0.000001 93.923600 82.512400 -90.418500 8.984550 -0.406207 -0.000000 7.153760 1.002620 6.940200 16.377300 -0.000001 -0.000001 4.548220 -4.002840 0.934434 6.456720 -0.000001 -0.000000 -0.799622 -5.025180 0.428599 12.994200 -0.242716 4.980390 -89.593600 -1.275690 -72.326700 5.348090 -0.000007 -0.000001 -48.000200 -17.677800 -36.938000 24.328600 0.000019 0.000005 3.417510 14.013800 -13.853100 22.291600 -0.000001 0.000005 10.416000 5.141450 4.147050 12.994500 -0.242716 -4.980390 88.106500 8.418860 -77.275900 -5.348130 -0.000001 -0.000004 -60.934600 15.393800 -3.746210 -24.328900 0.000322 -0.000009 -4.192930 -10.181500 -22.520200 -22.291500 -0.000108 -0.000004 21.325200 5.493360 -6.267890 -2.192480 -6.469440 -0.000000 -175.405000 -12.207900 -7.908520 39.081100 -0.000007 -0.000012 -0.405733 0.421056 43.939200 40.985400 -0.000006 -0.000013 -0.613729 5.217660 -77.221800 11.754300 -0.000000 0.000003 -0.000186 -0.001742 -16.643400 -2.192510 6.469440 -0.000001 174.946000 14.488200 171.099000 -39.081100 -0.002282 -0.040193 0.045822 -0.040770 46.231200 -40.985400 0.000008 0.000006 7.365800 7.028510 -78.981100 -11.754300 -0.000006 -0.000006 -1.034360 -1.291510 -16.595000
